<?xml version="1.0" encoding="utf-8"?>
<!-- Generator: Adobe Illustrator 24.1.2, SVG Export Plug-In . SVG Version: 6.00 Build 0)  -->
<svg version="1.1" id="Laag_2" xmlns="http://www.w3.org/2000/svg" xmlns:xlink="http://www.w3.org/1999/xlink" x="0px" y="0px"
	 viewBox="0 0 370.9 370.9" style="enable-background:new 0 0 370.9 370.9;" xml:space="preserve">
<style type="text/css">
	.st0{fill:#6B00B7;}
</style>
<text transform="matrix(0.9902 0 0 1 -126.3875 535.9318)" style="display:none;fill:#6B00B7; font-family:'EightOne'; font-size:201.9801px;">Alladdin</text>
<path class="st0" d="M369,159.3C356.1,69.8,279.1,0.9,185.9,0.9c-102.2,0-185,82.8-185,185s82.8,185,185,185s185-82.8,185-185
	C370.9,176.9,370.3,168,369,159.3z M185.4,276.9c-50.5,0-91.5-41-91.5-91.5s41-91.5,91.5-91.5s91.5,41,91.5,91.5
	S236,276.9,185.4,276.9z"/>
<polyline class="st0" points="370.4,345.4 305.4,295.4 370.4,172.2 "/>
</svg>
