<?xml version="1.0" encoding="utf-8"?>
<!-- Generator: Adobe Illustrator 24.1.2, SVG Export Plug-In . SVG Version: 6.00 Build 0)  -->
<svg version="1.1" id="Laag_2" xmlns="http://www.w3.org/2000/svg" xmlns:xlink="http://www.w3.org/1999/xlink" x="0px" y="0px"
	 viewBox="0 0 690.9 690.9" style="enable-background:new 0 0 690.9 690.9;" xml:space="preserve">
<style type="text/css">
	.st0{fill:#6B00B7;}
	.st1{font-family:'EightOne';}
	.st2{font-size:201.9801px;}
</style>
<text transform="matrix(0.9902 0 0 1 32.6125 612.9318)" class="st0 st1 st2">Alladdin</text>
<path class="st0" d="M528,236.3c-12.9-89.6-90-158.4-183.1-158.4c-102.2,0-185,82.8-185,185s82.8,185,185,185s185-82.8,185-185
	C529.9,253.9,529.3,245,528,236.3z M344.4,353.9c-50.5,0-91.5-41-91.5-91.5s41-91.5,91.5-91.5s91.5,41,91.5,91.5
	S395,353.9,344.4,353.9z"/>
<polyline class="st0" points="529.4,422.4 464.4,372.4 529.4,249.2 "/>
</svg>
