<?xml version="1.0" encoding="utf-8"?>
<!-- Generator: Adobe Illustrator 24.2.0, SVG Export Plug-In . SVG Version: 6.00 Build 0)  -->
<svg version="1.1" id="Laag_2_1_" xmlns="http://www.w3.org/2000/svg" xmlns:xlink="http://www.w3.org/1999/xlink" x="0px" y="0px"
	 viewBox="0 0 1239.4 406.1" style="enable-background:new 0 0 1239.4 406.1;" xml:space="preserve">
<style type="text/css">
	.st0{fill:#8540B7;stroke:#8540B7;stroke-width:5;stroke-miterlimit:10;}
	.st1{font-family:'EightOne';}
	.st2{font-size:243.0563px;}
	.st3{fill:#8540B7;}
</style>
<text transform="matrix(0.9902 0 0 1 486.0723 292.8438)" class="st0 st1 st2">Alladdin</text>
<path class="st3" d="M379.6,175.2c-12.9-89.6-90-158.4-183.1-158.4c-102.2,0-185,82.8-185,185s82.8,185,185,185s185-82.8,185-185
	C381.5,192.8,380.9,183.9,379.6,175.2z M196,292.8c-50.5,0-91.5-41-91.5-91.5s41-91.5,91.5-91.5s91.5,41,91.5,91.5
	S246.6,292.8,196,292.8z"/>
<polyline class="st3" points="381,361.3 316,311.3 381,188.1 "/>
</svg>
